<?xml version="1.0" encoding="UTF-8" standalone="no"?>
<svg
   width="800"
   height="800"
   version="1.1"
   viewBox="0 0 600.00001 600.00001"
   id="svg1913"
   sodipodi:docname="css-icon.svg"
   inkscape:version="1.1 (c68e22c387, 2021-05-23)"
   xmlns:inkscape="http://www.inkscape.org/namespaces/inkscape"
   xmlns:sodipodi="http://sodipodi.sourceforge.net/DTD/sodipodi-0.dtd"
   xmlns="http://www.w3.org/2000/svg"
   xmlns:svg="http://www.w3.org/2000/svg">
  <sodipodi:namedview
     id="namedview1915"
     pagecolor="#ffffff"
     bordercolor="#666666"
     borderopacity="1.0"
     inkscape:pageshadow="2"
     inkscape:pageopacity="0.0"
     inkscape:pagecheckerboard="true"
     inkscape:document-units="px"
     showgrid="false"
     units="px"
     width="222.59399px"
     inkscape:zoom="0.44282562"
     inkscape:cx="80.166996"
     inkscape:cy="-138.88085"
     inkscape:window-width="2560"
     inkscape:window-height="1377"
     inkscape:window-x="1912"
     inkscape:window-y="-8"
     inkscape:window-maximized="1"
     inkscape:current-layer="g2079"
     borderlayer="false"
     showborder="true"
     fit-margin-top="0"
     fit-margin-left="0"
     fit-margin-right="0"
     fit-margin-bottom="0" />
  <defs
     id="defs1827">
    <symbol
       id="v"
       overflow="visible">
      <path
         d="m 21.141,-1.2656 c -1.0938,0.5625 -2.2344,0.99219 -3.4219,1.2812 -1.1797,0.28906 -2.4062,0.4375 -3.6875,0.4375 -3.8359,0 -6.8711,-1.0703 -9.1094,-3.2188 -2.2305,-2.1445 -3.3438,-5.0469 -3.3438,-8.7031 0,-3.6758 1.1133,-6.582 3.3438,-8.7188 2.2383,-2.1445 5.2734,-3.2188 9.1094,-3.2188 1.2812,0 2.5078,0.14844 3.6875,0.4375 1.1875,0.28125 2.3281,0.70312 3.4219,1.2656 v 4.7656 c -1.1055,-0.75 -2.1953,-1.2969 -3.2656,-1.6406 -1.0625,-0.35156 -2.1836,-0.53125 -3.3594,-0.53125 -2.1172,0 -3.7812,0.67969 -5,2.0312 -1.2109,1.3555 -1.8125,3.2266 -1.8125,5.6094 0,2.3672 0.60156,4.2305 1.8125,5.5938 1.2188,1.3555 2.8828,2.0312 5,2.0312 1.1758,0 2.2969,-0.17188 3.3594,-0.51562 1.0703,-0.35156 2.1602,-0.90625 3.2656,-1.6562 z"
         id="path1761" />
    </symbol>
    <symbol
       id="d"
       overflow="visible">
      <path
         d="m 15.469,-12.547 c -0.49219,-0.22656 -0.97656,-0.39453 -1.4531,-0.5 -0.46875,-0.11328 -0.94922,-0.17188 -1.4375,-0.17188 -1.418,0 -2.5117,0.46094 -3.2812,1.375 -0.76172,0.90625 -1.1406,2.2031 -1.1406,3.8906 v 7.9531 h -5.5 v -17.25 h 5.5 v 2.8281 c 0.71875,-1.125 1.5352,-1.9453 2.4531,-2.4688 0.91406,-0.51953 2.0156,-0.78125 3.2969,-0.78125 0.1875,0 0.38281,0.01172 0.59375,0.03125 0.21875,0.01172 0.53516,0.04297 0.95312,0.09375 z"
         id="path1764" />
    </symbol>
    <symbol
       id="a"
       overflow="visible">
      <path
         d="m 19.875,-8.6719 v 1.5781 H 6.984 c 0.125,1.293 0.58594,2.2617 1.3906,2.9062 0.80078,0.64844 1.9219,0.96875 3.3594,0.96875 1.1641,0 2.3516,-0.17188 3.5625,-0.51562 1.2188,-0.34375 2.4688,-0.86328 3.75,-1.5625 v 4.25 c -1.3047,0.49219 -2.6055,0.85938 -3.9062,1.1094 -1.3047,0.25781 -2.6055,0.39062 -3.9062,0.39062 -3.125,0 -5.5547,-0.78906 -7.2812,-2.375 -1.7305,-1.5938 -2.5938,-3.8203 -2.5938,-6.6875 0,-2.8125 0.84766,-5.0234 2.5469,-6.6406 1.6953,-1.6133 4.0352,-2.4219 7.0156,-2.4219 2.707,0 4.875,0.82031 6.5,2.4531 1.6328,1.6367 2.4531,3.8203 2.4531,6.5469 z M 14.2031,-10.5 c 0,-1.0508 -0.30859,-1.8945 -0.92188,-2.5312 -0.60547,-0.64453 -1.4023,-0.96875 -2.3906,-0.96875 -1.0742,0 -1.9453,0.30469 -2.6094,0.90625 -0.66797,0.59375 -1.0781,1.4609 -1.2344,2.5938 z"
         id="path1767" />
    </symbol>
    <symbol
       id="l"
       overflow="visible">
      <path
         d="m 10.375,-7.7656 c -1.1484,0 -2.0117,0.19922 -2.5938,0.59375 -0.57422,0.38672 -0.85938,0.96094 -0.85938,1.7188 0,0.69922 0.22656,1.2461 0.6875,1.6406 0.46875,0.39844 1.1172,0.59375 1.9531,0.59375 1.0391,0 1.9141,-0.36719 2.625,-1.1094 0.70703,-0.75 1.0625,-1.6797 1.0625,-2.7969 v -0.64062 z m 8.4375,-2.0781 V 1e-4 H 13.25 v -2.5625 c -0.74219,1.0547 -1.5742,1.8203 -2.5,2.2969 -0.92969,0.47656 -2.0547,0.71875 -3.375,0.71875 -1.7812,0 -3.2305,-0.51953 -4.3438,-1.5625 -1.1172,-1.0508 -1.6719,-2.4062 -1.6719,-4.0625 0,-2.0195 0.69141,-3.5039 2.0781,-4.4531 1.3945,-0.94531 3.582,-1.4219 6.5625,-1.4219 h 3.25 v -0.42188 c 0,-0.875 -0.34375,-1.5156 -1.0312,-1.9219 -0.68745,-0.4063 -1.7617,-0.60938 -3.2188,-0.60938 -1.1875,0 -2.293,0.12109 -3.3125,0.35938 -1.0117,0.23047 -1.9531,0.58594 -2.8281,1.0625 v -4.2188 c 1.1875,-0.28125 2.375,-0.49219 3.5625,-0.64062 1.1875,-0.15625 2.3789,-0.23438 3.5781,-0.23438 3.1133,0 5.3594,0.61719 6.7344,1.8438 1.3828,1.2305 2.0781,3.2266 2.0781,5.9844 z"
         id="path1770" />
    </symbol>
    <symbol
       id="c"
       overflow="visible">
      <path
         d="m 8.6719,-22.156 v 4.9062 h 5.6875 v 3.9375 H 8.6719 v 7.3281 c 0,0.79297 0.15625,1.3359 0.46875,1.625 0.32031,0.28125 0.95703,0.42188 1.9062,0.42188 h 2.8281 v 3.9375 h -4.7188 c -2.1797,0 -3.7266,-0.45312 -4.6406,-1.3594 -0.90625,-0.90625 -1.3594,-2.4453 -1.3594,-4.625 v -7.3281 h -2.7344 v -3.9375 h 2.7344 v -4.9062 z"
         id="path1773" />
    </symbol>
    <symbol
       id="g"
       overflow="visible">
      <path
         d="m 14.391,-14.719 v -9.25 h 5.5469 V 0 H 14.391 v -2.5 c -0.76172,1.0234 -1.6016,1.7734 -2.5156,2.25 -0.91797,0.46875 -1.9766,0.70312 -3.1719,0.70312 -2.125,0 -3.8711,-0.84375 -5.2344,-2.5312 -1.3672,-1.6953 -2.0469,-3.875 -2.0469,-6.5312 0,-2.6562 0.67969,-4.8281 2.0469,-6.5156 1.3633,-1.6953 3.1094,-2.5469 5.2344,-2.5469 1.1875,0 2.2383,0.24219 3.1562,0.71875 0.92578,0.48047 1.7695,1.2266 2.5312,2.2344 z m -3.6406,11.156 c 1.1758,0 2.0781,-0.42578 2.7031,-1.2812 0.625,-0.86328 0.9375,-2.1172 0.9375,-3.7656 0,-1.6445 -0.3125,-2.8945 -0.9375,-3.75 -0.625,-0.86328 -1.5273,-1.2969 -2.7031,-1.2969 -1.168,0 -2.0625,0.43359 -2.6875,1.2969 -0.625,0.85547 -0.9375,2.1055 -0.9375,3.75 0,1.6484 0.3125,2.9023 0.9375,3.7656 0.625,0.85547 1.5195,1.2812 2.6875,1.2812 z"
         id="path1776" />
    </symbol>
    <symbol
       id="k"
       overflow="visible">
      <path
         d="m 11.828,-3.5625 c 1.1758,0 2.0781,-0.42578 2.7031,-1.2812 0.625,-0.86328 0.9375,-2.1172 0.9375,-3.7656 0,-1.6445 -0.3125,-2.8945 -0.9375,-3.75 -0.625,-0.86328 -1.5273,-1.2969 -2.7031,-1.2969 -1.1797,0 -2.0859,0.43359 -2.7188,1.2969 -0.63672,0.86719 -0.95312,2.1172 -0.95312,3.75 0,1.6367 0.31641,2.8867 0.95312,3.75 0.63281,0.86719 1.5391,1.2969 2.7188,1.2969 z m -3.6719,-11.156 c 0.75781,-1.0078 1.6016,-1.7539 2.5312,-2.2344 0.92578,-0.47656 1.9883,-0.71875 3.1875,-0.71875 2.125,0 3.8672,0.85156 5.2344,2.5469 1.375,1.6875 2.0625,3.8594 2.0625,6.5156 0,2.6562 -0.6875,4.8359 -2.0625,6.5312 -1.3672,1.6875 -3.1094,2.5312 -5.2344,2.5312 -1.1992,0 -2.2617,-0.24219 -3.1875,-0.71875 C 9.75761,-0.74206 8.9139,-1.4882 8.1561,-2.4999 v 2.5 h -5.5 v -23.969 h 5.5 z"
         id="path1779" />
    </symbol>
    <symbol
       id="j"
       overflow="visible">
      <path
         d="m 0.39062,-17.25 h 5.5156 l 4.625,11.703 3.9531,-11.703 h 5.5156 l -7.2656,18.875 c -0.73047,1.9258 -1.5781,3.2695 -2.5469,4.0312 -0.96875,0.76953 -2.25,1.1562 -3.8438,1.1562 h -3.1875 v -3.625 h 1.7344 c 0.92578,0 1.6016,-0.15234 2.0312,-0.45312 0.42578,-0.29297 0.75781,-0.82422 1,-1.5938 L 8.07797,0.6561 Z"
         id="path1782" />
    </symbol>
    <symbol
       id="f"
       overflow="visible">
      <path
         d="m 2.6562,-17.25 h 5.5 V 0 h -5.5 z m 0,-6.7188 h 5.5 v 4.5 h -5.5 z"
         id="path1785" />
    </symbol>
    <symbol
       id="i"
       overflow="visible">
      <path
         d="m 16.594,-16.719 v 4.5 c -0.75,-0.50781 -1.5078,-0.88281 -2.2656,-1.125 -0.75,-0.25 -1.5312,-0.375 -2.3438,-0.375 -1.543,0 -2.7461,0.44922 -3.6094,1.3438 -0.85547,0.89844 -1.2812,2.1523 -1.2812,3.7656 0,1.6172 0.42578,2.8711 1.2812,3.7656 0.86328,0.89844 2.0664,1.3438 3.6094,1.3438 0.86328,0 1.6797,-0.125 2.4531,-0.375 0.78125,-0.25781 1.5,-0.64062 2.1562,-1.1406 v 4.5 c -0.86719,0.32422 -1.7461,0.5625 -2.6406,0.71875 -0.88672,0.16406 -1.7734,0.25 -2.6562,0.25 -3.1172,0 -5.5547,-0.79688 -7.3125,-2.3906 -1.75,-1.6016 -2.625,-3.8281 -2.625,-6.6719 0,-2.8438 0.875,-5.0625 2.625,-6.6562 1.7578,-1.6016 4.1953,-2.4062 7.3125,-2.4062 0.89453,0 1.7812,0.08594 2.6562,0.25 0.88281,0.15625 1.7656,0.39062 2.6406,0.70312 z"
         id="path1788" />
    </symbol>
    <symbol
       id="b"
       overflow="visible">
      <path
         d="m 10.859,-13.719 c -1.2188,0 -2.1523,0.4375 -2.7969,1.3125 -0.64844,0.875 -0.96875,2.1406 -0.96875,3.7969 0,1.6563 0.32031,2.9219 0.96875,3.7969 0.64453,0.875 1.5781,1.3125 2.7969,1.3125 1.1953,0 2.1133,-0.4375 2.75,-1.3125 0.64453,-0.875 0.96875,-2.1406 0.96875,-3.7969 0,-1.6563 -0.32422,-2.9219 -0.96875,-3.7969 -0.63672,-0.875 -1.5547,-1.3125 -2.75,-1.3125 z m 0,-3.9531 c 2.9688,0 5.2852,0.80469 6.9531,2.4062 1.6641,1.6055 2.5,3.8242 2.5,6.6562 0,2.8359 -0.83594,5.0547 -2.5,6.6562 -1.668,1.6055 -3.9844,2.4062 -6.9531,2.4062 -2.9805,0 -5.3086,-0.80078 -6.9844,-2.4062 C 2.1949,-3.5551 1.359,-5.7738 1.359,-8.6097 c 0,-2.832 0.83594,-5.0508 2.5156,-6.6562 1.6758,-1.6016 4.0039,-2.4062 6.9844,-2.4062 z"
         id="path1791" />
    </symbol>
    <symbol
       id="e"
       overflow="visible">
      <path
         d="M 20,-10.5 V 0 h -5.5469 v -8.0469 c 0,-1.4883 -0.03906,-2.5156 -0.10938,-3.0781 -0.0625,-0.5625 -0.17969,-0.97656 -0.34375,-1.25 -0.21875,-0.35156 -0.51562,-0.62891 -0.89062,-0.82812 -0.36719,-0.20703 -0.78125,-0.3125 -1.25,-0.3125 -1.1484,0 -2.0547,0.44922 -2.7188,1.3438 -0.65625,0.88672 -0.98438,2.1172 -0.98438,3.6875 V 8e-5 h -5.5 v -17.25 h 5.5 v 2.5312 c 0.83203,-1.0078 1.7188,-1.7539 2.6562,-2.2344 0.9375,-0.47656 1.9688,-0.71875 3.0938,-0.71875 1.9883,0 3.5,0.61719 4.5312,1.8438 1.0391,1.2188 1.5625,2.9961 1.5625,5.3281 z"
         id="path1794" />
    </symbol>
    <symbol
       id="h"
       overflow="visible">
      <path
         d="m 16.125,-16.719 v 4.2031 c -1.1797,-0.5 -2.3203,-0.86719 -3.4219,-1.1094 -1.0938,-0.25 -2.1328,-0.375 -3.1094,-0.375 -1.043,0 -1.8203,0.13281 -2.3281,0.39062 -0.51172,0.26172 -0.76562,0.66406 -0.76562,1.2031 0,0.44922 0.19141,0.79297 0.57812,1.0312 0.38281,0.23047 1.0781,0.40234 2.0781,0.51562 l 0.96875,0.14062 c 2.8203,0.35547 4.7188,0.94531 5.6875,1.7656 0.97656,0.82422 1.4688,2.1172 1.4688,3.875 0,1.8359 -0.67969,3.2148 -2.0312,4.1406 -1.3555,0.92969 -3.375,1.3906 -6.0625,1.3906 -1.1484,0 -2.3281,-0.09375 -3.5469,-0.28125 -1.2188,-0.17578 -2.4688,-0.44141 -3.75,-0.79688 v -4.2031 c 1.1016,0.54297 2.2344,0.94922 3.3906,1.2188 1.1562,0.26172 2.3281,0.39062 3.5156,0.39062 1.0703,0 1.8789,-0.14453 2.4219,-0.4375 0.55078,-0.30078 0.82812,-0.74219 0.82812,-1.3281 0,-0.5 -0.1875,-0.86719 -0.5625,-1.1094 -0.375,-0.23828 -1.1211,-0.42578 -2.2344,-0.5625 l -0.98438,-0.125 c -2.4492,-0.30078 -4.168,-0.86719 -5.1562,-1.7031 -0.99219,-0.83203 -1.4844,-2.0977 -1.4844,-3.7969 0,-1.8203 0.625,-3.1758 1.875,-4.0625 1.2578,-0.88281 3.1797,-1.3281 5.7656,-1.3281 1.0195,0 2.0859,0.07813 3.2031,0.23438 1.125,0.15625 2.3438,0.39844 3.6562,0.71875 z"
         id="path1797" />
    </symbol>
    <symbol
       id="u"
       overflow="visible">
      <path
         d="M 3.2188,-5.9688 H 8.7657 V 0 H 3.2188 Z"
         id="path1800" />
    </symbol>
    <symbol
       id="t"
       overflow="visible">
      <path
         d="m 14.391,-2.9219 c -0.76172,1 -1.6016,1.7422 -2.5156,2.2188 C 10.95743,-0.23435 9.8988,2e-5 8.7035,2e-5 6.598,2e-5 4.8597,-0.8281 3.4847,-2.48438 c -1.375,-1.65628 -2.0625,-3.7695 -2.0625,-6.3438 0,-2.5703 0.6875,-4.6797 2.0625,-6.3281 1.375,-1.6562 3.1133,-2.4844 5.2188,-2.4844 1.1953,0 2.2539,0.24219 3.1719,0.71875 0.91406,0.46875 1.7539,1.2148 2.5156,2.2344 v -2.5625 h 5.5469 v 15.516 c 0,2.7695 -0.875,4.8828 -2.625,6.3438 -1.75,1.4688 -4.293,2.2031 -7.625,2.2031 -1.0742,0 -2.1172,-0.085938 -3.125,-0.25 C 5.5512,6.3949 4.5395,6.1449 3.5317,5.81287 v -4.2969 c 0.95703,0.55078 1.8984,0.96094 2.8281,1.2344 0.92578,0.26953 1.8594,0.40625 2.7969,0.40625 1.8008,0 3.125,-0.39844 3.9688,-1.1875 0.84375,-0.79297 1.2656,-2.0234 1.2656,-3.7031 z m -3.6406,-10.734 c -1.1367,0 -2.0273,0.42188 -2.6719,1.2656 -0.63672,0.83594 -0.95312,2.0234 -0.95312,3.5625 0,1.5859 0.30469,2.7891 0.92188,3.6094 0.625,0.8125 1.5234,1.2188 2.7031,1.2188 1.1562,0 2.0508,-0.42188 2.6875,-1.2656 0.63281,-0.84375 0.95312,-2.0312 0.95312,-3.5625 0,-1.5391 -0.32031,-2.7266 -0.95312,-3.5625 -0.63672,-0.84375 -1.5312,-1.2656 -2.6875,-1.2656 z"
         id="path1803" />
    </symbol>
    <symbol
       id="s"
       overflow="visible">
      <path
         d="m 14,-23.969 v 3.625 h -3.0469 c -0.78125,0 -1.3281,0.14062 -1.6406,0.42188 -0.30469,0.28125 -0.45312,0.77344 -0.45312,1.4688 v 1.2031 h 4.7188 v 3.9375 h -4.7188 v 13.312 h -5.5156 v -13.312 h -2.75 v -3.9375 h 2.75 v -1.2031 c 0,-1.875 0.51953,-3.2578 1.5625,-4.1562 1.0508,-0.90625 2.6758,-1.3594 4.875,-1.3594 z"
         id="path1806" />
    </symbol>
    <symbol
       id="r"
       overflow="visible">
      <path
         d="m 18.641,-14.391 c 0.69531,-1.0625 1.5234,-1.875 2.4844,-2.4375 0.95703,-0.5625 2.0156,-0.84375 3.1719,-0.84375 1.9766,0 3.4844,0.61719 4.5156,1.8438 1.0391,1.2188 1.5625,2.9961 1.5625,5.3281 v 10.5 h -5.5469 v -9 c 0.0078,-0.13281 0.01563,-0.26953 0.01563,-0.40625 0.0078,-0.14453 0.01563,-0.35156 0.01563,-0.625 0,-1.2188 -0.18359,-2.1016 -0.54688,-2.6562 -0.35547,-0.55078 -0.93359,-0.82812 -1.7344,-0.82812 -1.043,0 -1.8516,0.43359 -2.4219,1.2969 -0.57422,0.86719 -0.87109,2.1172 -0.89062,3.75 v 8.4688 h -5.5469 v -9 c 0,-1.9062 -0.16797,-3.1328 -0.5,-3.6875 -0.32422,-0.55078 -0.90625,-0.82812 -1.75,-0.82812 -1.0547,0 -1.8711,0.4375 -2.4531,1.3125 -0.57422,0.86719 -0.85938,2.1055 -0.85938,3.7188 v 8.4844 h -5.5312 v -17.25 h 5.5312 v 2.5312 c 0.6875,-0.97656 1.4688,-1.7109 2.3438,-2.2031 0.875,-0.5 1.8438,-0.75 2.9062,-0.75 1.1875,0 2.2383,0.29297 3.1562,0.875 0.91406,0.57422 1.6094,1.375 2.0781,2.4062 z"
         id="path1809" />
    </symbol>
    <symbol
       id="q"
       overflow="visible">
      <path
         d="M 20,-10.5 V 0 h -5.5469 v -8.0156 c 0,-1.5078 -0.03906,-2.5469 -0.10938,-3.1094 -0.0625,-0.5625 -0.17969,-0.97656 -0.34375,-1.25 -0.21875,-0.35156 -0.51562,-0.62891 -0.89062,-0.82812 -0.36719,-0.20703 -0.78125,-0.3125 -1.25,-0.3125 -1.1484,0 -2.0547,0.44922 -2.7188,1.3438 -0.65625,0.88672 -0.98438,2.1172 -0.98438,3.6875 V 8e-5 h -5.5 v -23.969 h 5.5 v 9.25 c 0.83203,-1.0078 1.7188,-1.7539 2.6562,-2.2344 0.9375,-0.47656 1.9688,-0.71875 3.0938,-0.71875 1.9883,0 3.5,0.61719 4.5312,1.8438 1.0391,1.2188 1.5625,2.9961 1.5625,5.3281 z"
         id="path1812" />
    </symbol>
    <symbol
       id="p"
       overflow="visible">
      <path
         d="m 2.8906,-23 h 6.625 l 8.375,15.781 V -23 H 23.5 V 0 H 16.875 L 8.5156,-15.781 V 0 h -5.625 z"
         id="path1815" />
    </symbol>
    <symbol
       id="o"
       overflow="visible">
      <path
         d="m 2.4688,-6.7188 v -10.531 h 5.5469 v 1.7188 c 0,0.9375 -0.00781,2.1172 -0.015625,3.5312 -0.011719,1.4062 -0.015625,2.3438 -0.015625,2.8125 0,1.3984 0.03125,2.4023 0.09375,3.0156 0.070313,0.60547 0.19531,1.043 0.375,1.3125 0.22656,0.36719 0.52344,0.64844 0.89062,0.84375 0.36328,0.1875 0.78125,0.28125 1.25,0.28125 1.1562,0 2.0625,-0.4375 2.7188,-1.3125 C 13.96887,-5.92951 14.297,-7.16 14.297,-8.7342 v -8.5156 h 5.5156 V 2e-4 H 14.297 v -2.5 c -0.83594,1.0117 -1.7148,1.7578 -2.6406,2.2344 -0.92969,0.47656 -1.9531,0.71875 -3.0781,0.71875 -1.9922,0 -3.5078,-0.60938 -4.5469,-1.8281 -1.043,-1.2266 -1.5625,-3.0078 -1.5625,-5.3438 z"
         id="path1818" />
    </symbol>
    <symbol
       id="n"
       overflow="visible">
      <path
         d="m 2.8906,-23 h 9.8438 c 2.9258,0 5.1719,0.65234 6.7344,1.9531 1.5703,1.3047 2.3594,3.1523 2.3594,5.5469 0,2.418 -0.78906,4.2773 -2.3594,5.5781 -1.5625,1.293 -3.8086,1.9375 -6.7344,1.9375 H 8.8282 V 0 H 2.8907 Z m 5.9375,4.2969 v 6.4219 h 3.2812 c 1.1445,0 2.0312,-0.27344 2.6562,-0.82812 0.63281,-0.5625 0.95312,-1.3594 0.95312,-2.3906 0,-1.0195 -0.32031,-1.8047 -0.95312,-2.3594 -0.625,-0.5625 -1.5117,-0.84375 -2.6562,-0.84375 z"
         id="path1821" />
    </symbol>
    <symbol
       id="m"
       overflow="visible">
      <path
         d="m 2.6562,-17.25 h 5.5 V -0.312 C 8.1562,2.0005 7.60151,3.7661 6.5,4.9849 5.3945,6.2037 3.7852,6.813 1.6719,6.813 H -1.0469 V 3.188 h 0.95312 c 1.0508,0 1.7695,-0.24219 2.1562,-0.71875 0.39453,-0.46875 0.59375,-1.3984 0.59375,-2.7812 z m 0,-6.7188 h 5.5 v 4.5 h -5.5 z"
         id="path1824" />
    </symbol>
  </defs>
  <g
     id="g1911"
     transform="matrix(0.95090782,0,0,-1,-31.20816,651.1286)">
    <g
       id="g2079"
       transform="translate(-1.6936685,71.134091)">
      <path
         d="m 248.56,559.99 h -65.703 c -44.441,0 -80.754,-26.5 -80.754,-92.078 v -108.46 c 0,-39.145 -52,-43.523 -67.59,-43.523 v -71.914 c 15.59,0 67.59,-4.3867 67.59,-43.492 V 91.433 c 0,-65.566 34.465,-91.434 80.754,-91.434 h 65.703 v 71.883 h -30.652 c -38.16,0 -40.75,23.316 -40.75,40.344 v 101.55 c -0.53516,58.668 -36.23,63.043 -62.551,65.602 v 1.1992 c 26.305,1.9453 62.012,6.3672 62.551,65.035 v 102.13 c 0,17.035 2.5859,40.344 40.75,40.344 h 30.652 z"
         id="path1829"
         style="fill:#ffffff" />
      <path
         d="m 451.36,0 h 67.59 c 42.555,0 78.871,26.539 78.871,92.059 v 108.46 c 0,39.102 50.102,43.492 67.668,43.492 v 71.918 c -17.559,0 -67.668,4.3711 -67.668,43.531 v 109.08 c 0,65.566 -34.426,91.449 -80.715,91.449 H 451.36 v -71.883 h 30.672 c 38.207,0 40.691,-23.309 40.691,-40.344 v -101.58 c 0.61719,-58.645 36.281,-63.027 62.617,-65.598 v -1.1992 c -26.344,-1.9453 -62,-6.3594 -62.617,-65.016 v -102.14 c 0,-17.031 -2.4922,-40.344 -40.691,-40.344 H 451.36 Z"
         id="path1831"
         style="fill:#ffffff" />
    </g>
  </g>
</svg>
