<?xml version="1.0" encoding="UTF-8"?>
<svg width="700pt" height="700pt" version="1.1" viewBox="0 0 700 700" xmlns="http://www.w3.org/2000/svg" xmlns:xlink="http://www.w3.org/1999/xlink">
 <defs>
  <symbol id="v" overflow="visible">
   <path d="m21.141-1.2656c-1.0938 0.5625-2.2344 0.99219-3.4219 1.2812-1.1797 0.28906-2.4062 0.4375-3.6875 0.4375-3.8359 0-6.8711-1.0703-9.1094-3.2188-2.2305-2.1445-3.3438-5.0469-3.3438-8.7031 0-3.6758 1.1133-6.582 3.3438-8.7188 2.2383-2.1445 5.2734-3.2188 9.1094-3.2188 1.2812 0 2.5078 0.14844 3.6875 0.4375 1.1875 0.28125 2.3281 0.70312 3.4219 1.2656v4.7656c-1.1055-0.75-2.1953-1.2969-3.2656-1.6406-1.0625-0.35156-2.1836-0.53125-3.3594-0.53125-2.1172 0-3.7812 0.67969-5 2.0312-1.2109 1.3555-1.8125 3.2266-1.8125 5.6094 0 2.3672 0.60156 4.2305 1.8125 5.5938 1.2188 1.3555 2.8828 2.0312 5 2.0312 1.1758 0 2.2969-0.17188 3.3594-0.51562 1.0703-0.35156 2.1602-0.90625 3.2656-1.6562z"/>
  </symbol>
  <symbol id="d" overflow="visible">
   <path d="m15.469-12.547c-0.49219-0.22656-0.97656-0.39453-1.4531-0.5-0.46875-0.11328-0.94922-0.17188-1.4375-0.17188-1.418 0-2.5117 0.46094-3.2812 1.375-0.76172 0.90625-1.1406 2.2031-1.1406 3.8906v7.9531h-5.5v-17.25h5.5v2.8281c0.71875-1.125 1.5352-1.9453 2.4531-2.4688 0.91406-0.51953 2.0156-0.78125 3.2969-0.78125 0.1875 0 0.38281 0.011719 0.59375 0.03125 0.21875 0.011719 0.53516 0.042969 0.95312 0.09375z"/>
  </symbol>
  <symbol id="a" overflow="visible">
   <path d="m19.875-8.6719v1.5781h-12.891c0.125 1.293 0.58594 2.2617 1.3906 2.9062 0.80078 0.64844 1.9219 0.96875 3.3594 0.96875 1.1641 0 2.3516-0.17188 3.5625-0.51562 1.2188-0.34375 2.4688-0.86328 3.75-1.5625v4.25c-1.3047 0.49219-2.6055 0.85938-3.9062 1.1094-1.3047 0.25781-2.6055 0.39062-3.9062 0.39062-3.125 0-5.5547-0.78906-7.2812-2.375-1.7305-1.5938-2.5938-3.8203-2.5938-6.6875 0-2.8125 0.84766-5.0234 2.5469-6.6406 1.6953-1.6133 4.0352-2.4219 7.0156-2.4219 2.707 0 4.875 0.82031 6.5 2.4531 1.6328 1.6367 2.4531 3.8203 2.4531 6.5469zm-5.6719-1.8281c0-1.0508-0.30859-1.8945-0.92188-2.5312-0.60547-0.64453-1.4023-0.96875-2.3906-0.96875-1.0742 0-1.9453 0.30469-2.6094 0.90625-0.66797 0.59375-1.0781 1.4609-1.2344 2.5938z"/>
  </symbol>
  <symbol id="l" overflow="visible">
   <path d="m10.375-7.7656c-1.1484 0-2.0117 0.19922-2.5938 0.59375-0.57422 0.38672-0.85938 0.96094-0.85938 1.7188 0 0.69922 0.22656 1.2461 0.6875 1.6406 0.46875 0.39844 1.1172 0.59375 1.9531 0.59375 1.0391 0 1.9141-0.36719 2.625-1.1094 0.70703-0.75 1.0625-1.6797 1.0625-2.7969v-0.64062zm8.4375-2.0781v9.8438h-5.5625v-2.5625c-0.74219 1.0547-1.5742 1.8203-2.5 2.2969-0.92969 0.47656-2.0547 0.71875-3.375 0.71875-1.7812 0-3.2305-0.51953-4.3438-1.5625-1.1172-1.0508-1.6719-2.4062-1.6719-4.0625 0-2.0195 0.69141-3.5039 2.0781-4.4531 1.3945-0.94531 3.582-1.4219 6.5625-1.4219h3.25v-0.42188c0-0.875-0.34375-1.5156-1.0312-1.9219s-1.7617-0.60938-3.2188-0.60938c-1.1875 0-2.293 0.12109-3.3125 0.35938-1.0117 0.23047-1.9531 0.58594-2.8281 1.0625v-4.2188c1.1875-0.28125 2.375-0.49219 3.5625-0.64062 1.1875-0.15625 2.3789-0.23438 3.5781-0.23438 3.1133 0 5.3594 0.61719 6.7344 1.8438 1.3828 1.2305 2.0781 3.2266 2.0781 5.9844z"/>
  </symbol>
  <symbol id="c" overflow="visible">
   <path d="m8.6719-22.156v4.9062h5.6875v3.9375h-5.6875v7.3281c0 0.79297 0.15625 1.3359 0.46875 1.625 0.32031 0.28125 0.95703 0.42188 1.9062 0.42188h2.8281v3.9375h-4.7188c-2.1797 0-3.7266-0.45312-4.6406-1.3594-0.90625-0.90625-1.3594-2.4453-1.3594-4.625v-7.3281h-2.7344v-3.9375h2.7344v-4.9062z"/>
  </symbol>
  <symbol id="g" overflow="visible">
   <path d="m14.391-14.719v-9.25h5.5469v23.969h-5.5469v-2.5c-0.76172 1.0234-1.6016 1.7734-2.5156 2.25-0.91797 0.46875-1.9766 0.70312-3.1719 0.70312-2.125 0-3.8711-0.84375-5.2344-2.5312-1.3672-1.6953-2.0469-3.875-2.0469-6.5312s0.67969-4.8281 2.0469-6.5156c1.3633-1.6953 3.1094-2.5469 5.2344-2.5469 1.1875 0 2.2383 0.24219 3.1562 0.71875 0.92578 0.48047 1.7695 1.2266 2.5312 2.2344zm-3.6406 11.156c1.1758 0 2.0781-0.42578 2.7031-1.2812 0.625-0.86328 0.9375-2.1172 0.9375-3.7656 0-1.6445-0.3125-2.8945-0.9375-3.75-0.625-0.86328-1.5273-1.2969-2.7031-1.2969-1.168 0-2.0625 0.43359-2.6875 1.2969-0.625 0.85547-0.9375 2.1055-0.9375 3.75 0 1.6484 0.3125 2.9023 0.9375 3.7656 0.625 0.85547 1.5195 1.2812 2.6875 1.2812z"/>
  </symbol>
  <symbol id="k" overflow="visible">
   <path d="m11.828-3.5625c1.1758 0 2.0781-0.42578 2.7031-1.2812 0.625-0.86328 0.9375-2.1172 0.9375-3.7656 0-1.6445-0.3125-2.8945-0.9375-3.75-0.625-0.86328-1.5273-1.2969-2.7031-1.2969-1.1797 0-2.0859 0.43359-2.7188 1.2969-0.63672 0.86719-0.95312 2.1172-0.95312 3.75 0 1.6367 0.31641 2.8867 0.95312 3.75 0.63281 0.86719 1.5391 1.2969 2.7188 1.2969zm-3.6719-11.156c0.75781-1.0078 1.6016-1.7539 2.5312-2.2344 0.92578-0.47656 1.9883-0.71875 3.1875-0.71875 2.125 0 3.8672 0.85156 5.2344 2.5469 1.375 1.6875 2.0625 3.8594 2.0625 6.5156s-0.6875 4.8359-2.0625 6.5312c-1.3672 1.6875-3.1094 2.5312-5.2344 2.5312-1.1992 0-2.2617-0.24219-3.1875-0.71875-0.92969-0.47656-1.7734-1.2227-2.5312-2.2344v2.5h-5.5v-23.969h5.5z"/>
  </symbol>
  <symbol id="j" overflow="visible">
   <path d="m0.39062-17.25h5.5156l4.625 11.703 3.9531-11.703h5.5156l-7.2656 18.875c-0.73047 1.9258-1.5781 3.2695-2.5469 4.0312-0.96875 0.76953-2.25 1.1562-3.8438 1.1562h-3.1875v-3.625h1.7344c0.92578 0 1.6016-0.15234 2.0312-0.45312 0.42578-0.29297 0.75781-0.82422 1-1.5938l0.15625-0.48438z"/>
  </symbol>
  <symbol id="f" overflow="visible">
   <path d="m2.6562-17.25h5.5v17.25h-5.5zm0-6.7188h5.5v4.5h-5.5z"/>
  </symbol>
  <symbol id="i" overflow="visible">
   <path d="m16.594-16.719v4.5c-0.75-0.50781-1.5078-0.88281-2.2656-1.125-0.75-0.25-1.5312-0.375-2.3438-0.375-1.543 0-2.7461 0.44922-3.6094 1.3438-0.85547 0.89844-1.2812 2.1523-1.2812 3.7656 0 1.6172 0.42578 2.8711 1.2812 3.7656 0.86328 0.89844 2.0664 1.3438 3.6094 1.3438 0.86328 0 1.6797-0.125 2.4531-0.375 0.78125-0.25781 1.5-0.64062 2.1562-1.1406v4.5c-0.86719 0.32422-1.7461 0.5625-2.6406 0.71875-0.88672 0.16406-1.7734 0.25-2.6562 0.25-3.1172 0-5.5547-0.79688-7.3125-2.3906-1.75-1.6016-2.625-3.8281-2.625-6.6719s0.875-5.0625 2.625-6.6562c1.7578-1.6016 4.1953-2.4062 7.3125-2.4062 0.89453 0 1.7812 0.085937 2.6562 0.25 0.88281 0.15625 1.7656 0.39062 2.6406 0.70312z"/>
  </symbol>
  <symbol id="b" overflow="visible">
   <path d="m10.859-13.719c-1.2188 0-2.1523 0.4375-2.7969 1.3125-0.64844 0.875-0.96875 2.1406-0.96875 3.7969s0.32031 2.9219 0.96875 3.7969c0.64453 0.875 1.5781 1.3125 2.7969 1.3125 1.1953 0 2.1133-0.4375 2.75-1.3125 0.64453-0.875 0.96875-2.1406 0.96875-3.7969s-0.32422-2.9219-0.96875-3.7969c-0.63672-0.875-1.5547-1.3125-2.75-1.3125zm0-3.9531c2.9688 0 5.2852 0.80469 6.9531 2.4062 1.6641 1.6055 2.5 3.8242 2.5 6.6562 0 2.8359-0.83594 5.0547-2.5 6.6562-1.668 1.6055-3.9844 2.4062-6.9531 2.4062-2.9805 0-5.3086-0.80078-6.9844-2.4062-1.6797-1.6016-2.5156-3.8203-2.5156-6.6562 0-2.832 0.83594-5.0508 2.5156-6.6562 1.6758-1.6016 4.0039-2.4062 6.9844-2.4062z"/>
  </symbol>
  <symbol id="e" overflow="visible">
   <path d="m20-10.5v10.5h-5.5469v-8.0469c0-1.4883-0.039063-2.5156-0.10938-3.0781-0.0625-0.5625-0.17969-0.97656-0.34375-1.25-0.21875-0.35156-0.51562-0.62891-0.89062-0.82812-0.36719-0.20703-0.78125-0.3125-1.25-0.3125-1.1484 0-2.0547 0.44922-2.7188 1.3438-0.65625 0.88672-0.98438 2.1172-0.98438 3.6875v8.4844h-5.5v-17.25h5.5v2.5312c0.83203-1.0078 1.7188-1.7539 2.6562-2.2344 0.9375-0.47656 1.9688-0.71875 3.0938-0.71875 1.9883 0 3.5 0.61719 4.5312 1.8438 1.0391 1.2188 1.5625 2.9961 1.5625 5.3281z"/>
  </symbol>
  <symbol id="h" overflow="visible">
   <path d="m16.125-16.719v4.2031c-1.1797-0.5-2.3203-0.86719-3.4219-1.1094-1.0938-0.25-2.1328-0.375-3.1094-0.375-1.043 0-1.8203 0.13281-2.3281 0.39062-0.51172 0.26172-0.76562 0.66406-0.76562 1.2031 0 0.44922 0.19141 0.79297 0.57812 1.0312 0.38281 0.23047 1.0781 0.40234 2.0781 0.51562l0.96875 0.14062c2.8203 0.35547 4.7188 0.94531 5.6875 1.7656 0.97656 0.82422 1.4688 2.1172 1.4688 3.875 0 1.8359-0.67969 3.2148-2.0312 4.1406-1.3555 0.92969-3.375 1.3906-6.0625 1.3906-1.1484 0-2.3281-0.09375-3.5469-0.28125-1.2188-0.17578-2.4688-0.44141-3.75-0.79688v-4.2031c1.1016 0.54297 2.2344 0.94922 3.3906 1.2188 1.1562 0.26172 2.3281 0.39062 3.5156 0.39062 1.0703 0 1.8789-0.14453 2.4219-0.4375 0.55078-0.30078 0.82812-0.74219 0.82812-1.3281 0-0.5-0.1875-0.86719-0.5625-1.1094-0.375-0.23828-1.1211-0.42578-2.2344-0.5625l-0.98438-0.125c-2.4492-0.30078-4.168-0.86719-5.1562-1.7031-0.99219-0.83203-1.4844-2.0977-1.4844-3.7969 0-1.8203 0.625-3.1758 1.875-4.0625 1.2578-0.88281 3.1797-1.3281 5.7656-1.3281 1.0195 0 2.0859 0.078125 3.2031 0.23438 1.125 0.15625 2.3438 0.39844 3.6562 0.71875z"/>
  </symbol>
  <symbol id="u" overflow="visible">
   <path d="m3.2188-5.9688h5.5469v5.9688h-5.5469z"/>
  </symbol>
  <symbol id="t" overflow="visible">
   <path d="m14.391-2.9219c-0.76172 1-1.6016 1.7422-2.5156 2.2188-0.91797 0.46875-1.9766 0.70312-3.1719 0.70312-2.1055 0-3.8438-0.82812-5.2188-2.4844s-2.0625-3.7695-2.0625-6.3438c0-2.5703 0.6875-4.6797 2.0625-6.3281 1.375-1.6562 3.1133-2.4844 5.2188-2.4844 1.1953 0 2.2539 0.24219 3.1719 0.71875 0.91406 0.46875 1.7539 1.2148 2.5156 2.2344v-2.5625h5.5469v15.516c0 2.7695-0.875 4.8828-2.625 6.3438-1.75 1.4688-4.293 2.2031-7.625 2.2031-1.0742 0-2.1172-0.085938-3.125-0.25-1.0117-0.16797-2.0234-0.41797-3.0312-0.75v-4.2969c0.95703 0.55078 1.8984 0.96094 2.8281 1.2344 0.92578 0.26953 1.8594 0.40625 2.7969 0.40625 1.8008 0 3.125-0.39844 3.9688-1.1875 0.84375-0.79297 1.2656-2.0234 1.2656-3.7031zm-3.6406-10.734c-1.1367 0-2.0273 0.42188-2.6719 1.2656-0.63672 0.83594-0.95312 2.0234-0.95312 3.5625 0 1.5859 0.30469 2.7891 0.92188 3.6094 0.625 0.8125 1.5234 1.2188 2.7031 1.2188 1.1562 0 2.0508-0.42188 2.6875-1.2656 0.63281-0.84375 0.95312-2.0312 0.95312-3.5625 0-1.5391-0.32031-2.7266-0.95312-3.5625-0.63672-0.84375-1.5312-1.2656-2.6875-1.2656z"/>
  </symbol>
  <symbol id="s" overflow="visible">
   <path d="m14-23.969v3.625h-3.0469c-0.78125 0-1.3281 0.14062-1.6406 0.42188-0.30469 0.28125-0.45312 0.77344-0.45312 1.4688v1.2031h4.7188v3.9375h-4.7188v13.312h-5.5156v-13.312h-2.75v-3.9375h2.75v-1.2031c0-1.875 0.51953-3.2578 1.5625-4.1562 1.0508-0.90625 2.6758-1.3594 4.875-1.3594z"/>
  </symbol>
  <symbol id="r" overflow="visible">
   <path d="m18.641-14.391c0.69531-1.0625 1.5234-1.875 2.4844-2.4375 0.95703-0.5625 2.0156-0.84375 3.1719-0.84375 1.9766 0 3.4844 0.61719 4.5156 1.8438 1.0391 1.2188 1.5625 2.9961 1.5625 5.3281v10.5h-5.5469v-9c0.007813-0.13281 0.015625-0.26953 0.015625-0.40625 0.007812-0.14453 0.015625-0.35156 0.015625-0.625 0-1.2188-0.18359-2.1016-0.54688-2.6562-0.35547-0.55078-0.93359-0.82812-1.7344-0.82812-1.043 0-1.8516 0.43359-2.4219 1.2969-0.57422 0.86719-0.87109 2.1172-0.89062 3.75v8.4688h-5.5469v-9c0-1.9062-0.16797-3.1328-0.5-3.6875-0.32422-0.55078-0.90625-0.82812-1.75-0.82812-1.0547 0-1.8711 0.4375-2.4531 1.3125-0.57422 0.86719-0.85938 2.1055-0.85938 3.7188v8.4844h-5.5312v-17.25h5.5312v2.5312c0.6875-0.97656 1.4688-1.7109 2.3438-2.2031 0.875-0.5 1.8438-0.75 2.9062-0.75 1.1875 0 2.2383 0.29297 3.1562 0.875 0.91406 0.57422 1.6094 1.375 2.0781 2.4062z"/>
  </symbol>
  <symbol id="q" overflow="visible">
   <path d="m20-10.5v10.5h-5.5469v-8.0156c0-1.5078-0.039063-2.5469-0.10938-3.1094-0.0625-0.5625-0.17969-0.97656-0.34375-1.25-0.21875-0.35156-0.51562-0.62891-0.89062-0.82812-0.36719-0.20703-0.78125-0.3125-1.25-0.3125-1.1484 0-2.0547 0.44922-2.7188 1.3438-0.65625 0.88672-0.98438 2.1172-0.98438 3.6875v8.4844h-5.5v-23.969h5.5v9.25c0.83203-1.0078 1.7188-1.7539 2.6562-2.2344 0.9375-0.47656 1.9688-0.71875 3.0938-0.71875 1.9883 0 3.5 0.61719 4.5312 1.8438 1.0391 1.2188 1.5625 2.9961 1.5625 5.3281z"/>
  </symbol>
  <symbol id="p" overflow="visible">
   <path d="m2.8906-23h6.625l8.375 15.781v-15.781h5.6094v23h-6.625l-8.3594-15.781v15.781h-5.625z"/>
  </symbol>
  <symbol id="o" overflow="visible">
   <path d="m2.4688-6.7188v-10.531h5.5469v1.7188c0 0.9375-0.007813 2.1172-0.015625 3.5312-0.011719 1.4062-0.015625 2.3438-0.015625 2.8125 0 1.3984 0.03125 2.4023 0.09375 3.0156 0.070313 0.60547 0.19531 1.043 0.375 1.3125 0.22656 0.36719 0.52344 0.64844 0.89062 0.84375 0.36328 0.1875 0.78125 0.28125 1.25 0.28125 1.1562 0 2.0625-0.4375 2.7188-1.3125 0.65625-0.88281 0.98438-2.1133 0.98438-3.6875v-8.5156h5.5156v17.25h-5.5156v-2.5c-0.83594 1.0117-1.7148 1.7578-2.6406 2.2344-0.92969 0.47656-1.9531 0.71875-3.0781 0.71875-1.9922 0-3.5078-0.60938-4.5469-1.8281-1.043-1.2266-1.5625-3.0078-1.5625-5.3438z"/>
  </symbol>
  <symbol id="n" overflow="visible">
   <path d="m2.8906-23h9.8438c2.9258 0 5.1719 0.65234 6.7344 1.9531 1.5703 1.3047 2.3594 3.1523 2.3594 5.5469 0 2.418-0.78906 4.2773-2.3594 5.5781-1.5625 1.293-3.8086 1.9375-6.7344 1.9375h-3.9062v7.9844h-5.9375zm5.9375 4.2969v6.4219h3.2812c1.1445 0 2.0312-0.27344 2.6562-0.82812 0.63281-0.5625 0.95312-1.3594 0.95312-2.3906 0-1.0195-0.32031-1.8047-0.95312-2.3594-0.625-0.5625-1.5117-0.84375-2.6562-0.84375z"/>
  </symbol>
  <symbol id="m" overflow="visible">
   <path d="m2.6562-17.25h5.5v16.938c0 2.3125-0.55469 4.0781-1.6562 5.2969-1.1055 1.2188-2.7148 1.8281-4.8281 1.8281h-2.7188v-3.625h0.95312c1.0508 0 1.7695-0.24219 2.1562-0.71875 0.39453-0.46875 0.59375-1.3984 0.59375-2.7812zm0-6.7188h5.5v4.5h-5.5z"/>
  </symbol>
 </defs>
 <g>
  <path d="m248.56 559.99h-65.703c-44.441 0-80.754-26.5-80.754-92.078v-108.46c0-39.145-52-43.523-67.59-43.523v-71.914c15.59 0 67.59-4.3867 67.59-43.492v-109.09c0-65.566 34.465-91.434 80.754-91.434h65.703v71.883h-30.652c-38.16 0-40.75 23.316-40.75 40.344v101.55c-0.53516 58.668-36.23 63.043-62.551 65.602v1.1992c26.305 1.9453 62.012 6.3672 62.551 65.035v102.13c0 17.035 2.5859 40.344 40.75 40.344h30.652z"/>
  <path d="m451.36 0h67.59c42.555 0 78.871 26.539 78.871 92.059v108.46c0 39.102 50.102 43.492 67.668 43.492v71.918c-17.559 0-67.668 4.3711-67.668 43.531v109.08c0 65.566-34.426 91.449-80.715 91.449h-65.746v-71.883h30.672c38.207 0 40.691-23.309 40.691-40.344v-101.58c0.61719-58.645 36.281-63.027 62.617-65.598v-1.1992c-26.344-1.9453-62-6.3594-62.617-65.016v-102.14c0-17.031-2.4922-40.344-40.691-40.344h-30.672z"/>
  <use x="34.511719" y="654.648438" xlink:href="#v"/>
  <use x="57.664062" y="654.648438" xlink:href="#d"/>
  <use x="73.222656" y="654.648438" xlink:href="#a"/>
  <use x="94.621094" y="654.648438" xlink:href="#l"/>
  <use x="115.910156" y="654.648438" xlink:href="#c"/>
  <use x="130.992188" y="654.648438" xlink:href="#a"/>
  <use x="152.386719" y="654.648438" xlink:href="#g"/>
  <use x="185.953125" y="654.648438" xlink:href="#k"/>
  <use x="208.539063" y="654.648438" xlink:href="#j"/>
  <use x="240.085938" y="654.648438" xlink:href="#f"/>
  <use x="250.902344" y="654.648438" xlink:href="#i"/>
  <use x="269.601562" y="654.648438" xlink:href="#b"/>
  <use x="291.277344" y="654.648438" xlink:href="#e"/>
  <use x="313.738281" y="654.648438" xlink:href="#h"/>
  <use x="332.515625" y="654.648438" xlink:href="#u"/>
  <use x="344.5" y="654.648438" xlink:href="#g"/>
  <use x="367.082031" y="654.648438" xlink:href="#a"/>
  <use x="388.480469" y="654.648438" xlink:href="#h"/>
  <use x="407.257812" y="654.648438" xlink:href="#f"/>
  <use x="418.074219" y="654.648438" xlink:href="#t"/>
  <use x="440.65625" y="654.648438" xlink:href="#e"/>
  <use x="34.511719" y="686.195312" xlink:href="#s"/>
  <use x="48.234375" y="686.195312" xlink:href="#d"/>
  <use x="63.796875" y="686.195312" xlink:href="#b"/>
  <use x="85.46875" y="686.195312" xlink:href="#r"/>
  <use x="129.328125" y="686.195312" xlink:href="#c"/>
  <use x="144.40625" y="686.195312" xlink:href="#q"/>
  <use x="166.867188" y="686.195312" xlink:href="#a"/>
  <use x="199.25" y="686.195312" xlink:href="#p"/>
  <use x="225.652344" y="686.195312" xlink:href="#b"/>
  <use x="247.328125" y="686.195312" xlink:href="#o"/>
  <use x="269.789062" y="686.195312" xlink:href="#e"/>
  <use x="303.230469" y="686.195312" xlink:href="#n"/>
  <use x="326.355469" y="686.195312" xlink:href="#d"/>
  <use x="341.914062" y="686.195312" xlink:href="#b"/>
  <use x="363.585938" y="686.195312" xlink:href="#m"/>
  <use x="374.402344" y="686.195312" xlink:href="#a"/>
  <use x="395.796875" y="686.195312" xlink:href="#i"/>
  <use x="414.5" y="686.195312" xlink:href="#c"/>
 </g>
</svg>
